<svg class="animated" id="freepik_stories-witch" xmlns="http://www.w3.org/2000/svg" viewBox="0 0 500 500" version="1.1" xmlns:xlink="http://www.w3.org/1999/xlink" xmlns:svgjs="http://svgjs.com/svgjs"><style>svg#freepik_stories-witch:not(.animated) .animable {opacity: 0;}svg#freepik_stories-witch.animated #freepik--Clouds--inject-134 {animation: 3s Infinite  linear floating;animation-delay: 0s;}svg#freepik_stories-witch.animated #freepik--moon-and-stars--inject-134 {animation: 3s Infinite  linear floating;animation-delay: 0s;}svg#freepik_stories-witch.animated #freepik--Pumpkins--inject-134 {animation: 6s Infinite  linear wind;animation-delay: 0s;}svg#freepik_stories-witch.animated #freepik--Character--inject-134 {animation: 3s Infinite  linear wind;animation-delay: 0s;}            @keyframes floating {                0% {                    opacity: 1;                    transform: translateY(0px);                }                50% {                    transform: translateY(-10px);                }                100% {                    opacity: 1;                    transform: translateY(0px);                }            }                    @keyframes wind {                0% {                    transform: rotate( 0deg );                }                25% {                    transform: rotate( 1deg );                }                75% {                    transform: rotate( -1deg );                }            }        .animator-hidden { display: none; }</style><g id="freepik--Floor--inject-134" class="animable animator-hidden" style="transform-origin: 252.91px 345.83px;"><ellipse id="freepik--floor--inject-134" cx="252.91" cy="345.83" rx="208.31" ry="123.59" style="fill: rgb(245, 245, 245); transform-origin: 252.91px 345.83px;" class="animable"></ellipse></g><g id="freepik--Shadows--inject-134" class="animable animator-active animator-hidden" style="transform-origin: 251.71px 368.839px;"><ellipse id="freepik--Shadow--inject-134" cx="251.85" cy="397.61" rx="72.12" ry="41.64" style="fill: rgb(224, 224, 224); transform-origin: 251.85px 397.61px;" class="animable"></ellipse><ellipse id="freepik--shadow--inject-134" cx="374.41" cy="390.02" rx="39.09" ry="22.57" style="fill: rgb(224, 224, 224); transform-origin: 374.41px 390.02px;" class="animable"></ellipse><ellipse id="freepik--shadow--inject-134" cx="138.05" cy="380.17" rx="48.13" ry="27.79" style="fill: rgb(224, 224, 224); transform-origin: 138.05px 380.17px;" class="animable"></ellipse><g id="freepik--shadow--inject-134"><ellipse cx="176.31" cy="339.64" rx="45.49" ry="31.74" style="fill: rgb(224, 224, 224); transform-origin: 176.31px 339.64px; transform: rotate(-13.08deg);" class="animable" id="elti3kqqlovz"></ellipse></g></g><g id="freepik--Clouds--inject-134" class="animable" style="transform-origin: 250.52px 94.9606px;"><g id="freepik--clouds--inject-134" class="animable" style="transform-origin: 250.52px 94.9606px;"><path id="freepik--Cloud--inject-134" d="M174.39,76.44h-5.75a4.48,4.48,0,0,0,.05-.64V74.36a4.64,4.64,0,0,0-4.64-4.64,4.59,4.59,0,0,0-2.77.92,6.95,6.95,0,0,0-13.84.85v2.16a6.87,6.87,0,0,0,.59,2.79h-4.77a2.58,2.58,0,1,0,0,5.15h31.13a2.58,2.58,0,1,0,0-5.15Z" style="fill: rgb(224, 224, 224); transform-origin: 158.825px 73.0972px;" class="animable"></path><path id="freepik--cloud--inject-134" d="M394.6,51.1h-5.2a3.45,3.45,0,0,0,.05-.57v-1.3A4.2,4.2,0,0,0,385.24,45a4.11,4.11,0,0,0-2.5.84,6.29,6.29,0,0,0-12.53.77v1.95a6.21,6.21,0,0,0,.53,2.52h-4.32a2.34,2.34,0,0,0,0,4.67H394.6a2.34,2.34,0,1,0,0-4.67Z" style="fill: rgb(224, 224, 224); transform-origin: 380.663px 48.0481px;" class="animable"></path><path id="freepik--cloud--inject-134" d="M52.06,141.31l3.17-.53v-6c0-4.8,4.41-8.15,9.21-8.15h0a8.68,8.68,0,0,1,8.68,8.68v.87a6.18,6.18,0,0,1,4-1.47h0a6.24,6.24,0,0,1,6.25,6.24v.4h4.42a4.12,4.12,0,0,1,0,8.23H52.06a4.12,4.12,0,0,1,0-8.23Z" style="fill: rgb(224, 224, 224); transform-origin: 69.925px 138.105px;" class="animable"></path><path id="freepik--cloud--inject-134" d="M417,97.53l2.87-.48V91.58c0-4.34,4-7.38,8.34-7.38h0a7.86,7.86,0,0,1,7.85,7.86v.8a5.61,5.61,0,0,1,3.65-1.34h0a5.65,5.65,0,0,1,5.65,5.65v.36h4a3.73,3.73,0,0,1,0,7.45H417a3.73,3.73,0,0,1,0-7.45Z" style="fill: rgb(224, 224, 224); transform-origin: 433.18px 94.59px;" class="animable"></path></g></g><g id="freepik--moon-and-stars--inject-134" class="animable" style="transform-origin: 106.809px 89.6861px;"><g id="freepik--Moon--inject-134" class="animable" style="transform-origin: 109.85px 97.871px;"><path id="freepik--moon--inject-134" d="M135,100.2v.13a25.21,25.21,0,1,1-24.11-27.65A19.9,19.9,0,1,0,135,100.2Z" style="fill: #9F2AB2; transform-origin: 109.85px 97.871px;" class="animable"></path></g><g id="freepik--Stars--inject-134" class="animable" style="transform-origin: 106.809px 87.5781px;"><path d="M75,58.08c0,2.38,3.72,2.38,3.68,0S74.94,55.69,75,58.08Z" style="fill: #9F2AB2; transform-origin: 76.8398px 58.0781px;" id="elcejypht67dq" class="animable"></path><path d="M73,117.08c0,2.38,3.72,2.38,3.68,0S72.94,114.69,73,117.08Z" style="fill: #9F2AB2; transform-origin: 74.8398px 117.078px;" id="el4jgkmo0720k" class="animable"></path><path d="M87,62.08c0,2.38,3.72,2.38,3.68,0S86.94,59.69,87,62.08Z" style="fill: #9F2AB2; transform-origin: 88.8398px 62.0781px;" id="el17prdzgvkie" class="animable"></path><path d="M51.5,84.53l4.84,1.67c1.75,6.81,1.35,6.69,5.48,1,7.11.4,6.8.88,2.69-4.89,2.57-6.63,2.94-6.19-3.81-4.07-5.52-4.49-5-4.7-5.06,2.37C55.39,81.21,49.64,83.6,51.5,84.53Z" style="fill: #9F2AB2; transform-origin: 59.2753px 83.2226px;" id="elh237p1dw8l" class="animable"></path><path d="M151,104.22l1.91,3.13c-2.13,4.56-2.3,4.32,2.55,3.08,3.75,3.46,3.36,3.59,3.72-1.47,4.45-2.49,4.45-2.08-.25-4-1-5-.61-4.88-3.88-1C154.68,104.16,150.41,102.86,151,104.22Z" style="fill: #9F2AB2; transform-origin: 156.716px 107.016px;" id="elnjbsqb0fo7" class="animable"></path><g id="elmiog3a7z3s"><path d="M75,58.08c0,2.38,3.72,2.38,3.68,0S74.94,55.69,75,58.08Z" style="fill: rgb(255, 255, 255); opacity: 0.5; transform-origin: 76.8398px 58.0781px;" class="animable" id="elwv7mfek43g"></path></g><g id="el3y0vmesyoc8"><path d="M73,117.08c0,2.38,3.72,2.38,3.68,0S72.94,114.69,73,117.08Z" style="fill: rgb(255, 255, 255); opacity: 0.5; transform-origin: 74.8398px 117.078px;" class="animable" id="elisehv5ic1qi"></path></g><g id="eljvbffs7vw7"><path d="M87,62.08c0,2.38,3.72,2.38,3.68,0S86.94,59.69,87,62.08Z" style="fill: rgb(255, 255, 255); opacity: 0.5; transform-origin: 88.8398px 62.0781px;" class="animable" id="elfjphxyvze9b"></path></g><g id="eljy7cubb3wbg"><path d="M51.5,84.53l4.84,1.67c1.75,6.81,1.35,6.69,5.48,1,7.11.4,6.8.88,2.69-4.89,2.57-6.63,2.94-6.19-3.81-4.07-5.52-4.49-5-4.7-5.06,2.37C55.39,81.21,49.64,83.6,51.5,84.53Z" style="fill: rgb(255, 255, 255); opacity: 0.5; transform-origin: 59.2753px 83.2226px;" class="animable" id="el90vmm8xqveh"></path></g><g id="eldrv4hu1zxgi"><path d="M151,104.22l1.91,3.13c-2.13,4.56-2.3,4.32,2.55,3.08,3.75,3.46,3.36,3.59,3.72-1.47,4.45-2.49,4.45-2.08-.25-4-1-5-.61-4.88-3.88-1C154.68,104.16,150.41,102.86,151,104.22Z" style="fill: rgb(255, 255, 255); opacity: 0.5; transform-origin: 156.716px 107.016px;" class="animable" id="elnsx2hkz2zxp"></path></g></g></g><g id="freepik--Pumpkins--inject-134" class="animable" style="transform-origin: 156.583px 333.523px;"><g id="freepik--Pumpkin--inject-134" class="animable" style="transform-origin: 172.017px 314.686px;"><path d="M189.82,330.32c1.14,7.92.18,18.42-2.82,26-2.61,5-6.44,7.46-10.86,7.73-3.94.22-7.8-1.37-11.12-5-2.76-2.95-5.14-7.29-6.9-13.05-3.69-12.05-5-35.19,1.44-47.45,4.18-8,10.76-8.41,10.76-8.41s6.43,1.85,11.25,10.2C184.81,305.9,188.26,319.48,189.82,330.32Z" style="fill: #9F2AB2; transform-origin: 172.663px 327.105px;" id="elfm31imhuam" class="animable"></path><g id="elm2xv3ped5ho"><path d="M189.82,330.32c1.14,7.92.18,18.42-2.82,26-2.61,5-6.44,7.46-10.86,7.73-3.94.22-7.8-1.37-11.12-5-2.76-2.95-5.14-7.29-6.9-13.05-3.69-12.05-5-35.19,1.44-47.45,4.18-8,10.76-8.41,10.76-8.41s6.43,1.85,11.25,10.2C184.81,305.9,188.26,319.48,189.82,330.32Z" style="fill: rgb(255, 255, 255); opacity: 0.5; transform-origin: 172.663px 327.105px;" class="animable" id="el43nl0t5ggg"></path></g><g id="el77mpuzzslg9"><path d="M173.62,358c-9.1-2.08-15.32-11.45-17.3-19.33h0a71.51,71.51,0,0,0,1.8,7.3c1.76,5.76,4.14,10.1,6.9,13.05,3.32,3.59,7.18,5.18,11.12,5,4.42-.27,8.25-2.7,10.86-7.73a31.62,31.62,0,0,0,2-10C188.85,350.35,182.66,360.08,173.62,358Z" style="opacity: 0.05; transform-origin: 172.66px 351.352px;" class="animable" id="elm4c9v6qmu0d"></path></g><path d="M170.32,290.14s-6.58.37-10.76,8.41c-6.39,12.26-5.13,35.4-1.44,47.45,1.76,5.76,4.14,10.1,6.9,13.05-2.65,2.14-11,2.76-17-3.69a22.68,22.68,0,0,1-3-4.14c-4.2-7.09-5.53-16.5-5.85-22.92-.4-7.76,2.49-22.08,9.77-29.86s17.58-10.06,21.39-8.31Z" style="fill: #9F2AB2; transform-origin: 154.732px 325.054px;" id="elsnb6z53c0f" class="animable"></path><g id="elqj50lvl28io"><path d="M170.32,290.14s-6.58.37-10.76,8.41c-6.39,12.26-5.13,35.4-1.44,47.45,1.76,5.76,4.14,10.1,6.9,13.05-2.65,2.14-11,2.76-17-3.69a22.68,22.68,0,0,1-3-4.14c-4.2-7.09-5.53-16.5-5.85-22.92-.4-7.76,2.49-22.08,9.77-29.86s17.58-10.06,21.39-8.31Z" style="fill: rgb(255, 255, 255); opacity: 0.25; transform-origin: 154.732px 325.054px;" class="animable" id="elx95xewmbtz8"></path></g><g id="elvspikidapzl"><path d="M156.55,307.24c-4.39,8.89-8.73,25.3.57,46.74,0,0-1.51,1.61-6.61-.85s-7.71-7.18-9.34-11.4a38,38,0,0,0,3.82,9.49,22.68,22.68,0,0,0,3,4.14c6,6.45,14.33,5.83,17,3.69-2.76-2.95-5.14-7.29-6.9-13.05-3.3-10.78-3.82-25.46-1.57-38.76Z" style="opacity: 0.05; transform-origin: 153.08px 333.887px;" class="animable" id="elf03kwerbyy"></path></g><path d="M170.3,290.13c-3.81-1.75-14.12.54-21.39,8.31s-10.17,22.1-9.77,29.86c.32,6.42,1.65,15.83,5.85,22.92-5.88-1.31-12.2-8.88-14.19-17.48a51.68,51.68,0,0,1-1.33-10.25,35,35,0,0,1,1.14-10.38c1.69-5.82,6.74-21.83,20.54-25.5,13-3.46,18.52,1.84,19.11,2.47C170.28,290.1,170.3,290.11,170.3,290.13Z" style="fill: #9F2AB2; transform-origin: 149.871px 318.833px;" id="elwklz6kp2r2" class="animable"></path><g id="el7qp10l5zc7o"><path d="M146.25,301.66h0c-7,5.34-11.57,21.74-9.86,35.42,0,0-4.22-1.7-6.61-9.3a53.28,53.28,0,0,0,1,6c2,8.6,8.31,16.17,14.19,17.48-4.2-7.09-5.53-16.5-5.85-22.92C138.79,321.57,140.87,309,146.25,301.66Z" style="opacity: 0.05; transform-origin: 138.015px 326.46px;" class="animable" id="el7i6tomidqo"></path></g><path d="M205.34,328.71c.59,4.16,1.46,11.61-.92,17.94a15.78,15.78,0,0,1-5.94,7.79A13.22,13.22,0,0,1,187,356.28c3-7.54,4-18,2.82-26-1.56-10.84-5-24.42-8.25-30-4.82-8.35-11.25-10.2-11.25-10.2s6.9-2.13,18.41,5C197.91,300.77,203.55,316.23,205.34,328.71Z" style="fill: #9F2AB2; transform-origin: 188.157px 323.319px;" id="elrnlxq518wvi" class="animable"></path><g id="el7xcy2slvcqt"><path d="M205.34,328.71c.59,4.16,1.46,11.61-.92,17.94a15.78,15.78,0,0,1-5.94,7.79A13.22,13.22,0,0,1,187,356.28c3-7.54,4-18,2.82-26-1.56-10.84-5-24.42-8.25-30-4.82-8.35-11.25-10.2-11.25-10.2s6.9-2.13,18.41,5C197.91,300.77,203.55,316.23,205.34,328.71Z" style="fill: rgb(255, 255, 255); opacity: 0.25; transform-origin: 188.157px 323.319px;" class="animable" id="elfvcv7f8x8su"></path></g><g id="eleyywjlwury7"><path d="M193.77,349.46c1.63-23.33-8.52-45-13.11-50.6.31.47.61,1,.91,1.48,3.24,5.56,6.69,19.14,8.25,30,1.14,7.92.18,18.42-2.82,26a13.22,13.22,0,0,0,11.48-1.84,15.78,15.78,0,0,0,5.94-7.79c1.85-4.91,1.74-10.48,1.32-14.68C202.21,348.53,193.77,349.46,193.77,349.46Z" style="opacity: 0.05; transform-origin: 193.328px 327.888px;" class="animable" id="elpkqr9imco2q"></path></g><path d="M216.47,322.71a34.7,34.7,0,0,1-.71,11.55c-1.77,7-8.07,12.58-11.34,12.39,2.38-6.33,1.51-13.78.92-17.94-1.79-12.48-7.43-27.94-16.61-33.59-11.51-7.11-18.41-5-18.41-5v0c.26-.33,1.9-3,10.62-4.74,9.14-1.8,20,5.65,27,13.82C212.32,304.41,215.7,313.75,216.47,322.71Z" style="fill: #9F2AB2; transform-origin: 193.493px 315.882px;" id="elkjwoal2z4q" class="animable"></path><g id="elv7tg59e20gg"><path d="M210.47,336.22c-1.66-27.32-14.87-39.7-22.52-41.57v0c.26.15.51.28.78.45,9.18,5.65,14.82,21.11,16.61,33.59.59,4.16,1.46,11.61-.92,17.94,3.27.19,9.57-5.36,11.34-12.39a31.94,31.94,0,0,0,.89-8.05A14.21,14.21,0,0,1,210.47,336.22Z" style="opacity: 0.05; transform-origin: 202.302px 320.642px;" class="animable" id="eld79zg1sfs29"></path></g><path d="M216.47,322.71c-.77-9-4.15-18.3-8.56-23.51-6.92-8.17-17.82-15.62-27-13.82-8.72,1.71-10.36,4.41-10.62,4.74v0c.22-.55,1.15-5,8.58-9.43s19.24-4.09,29.82,8.59l.34.43v0C216.63,299.18,218.9,315.32,216.47,322.71Z" style="fill: #9F2AB2; transform-origin: 193.846px 300.412px;" id="elcxasc1ys3b" class="animable"></path><g id="elb2c97cr9ega"><path d="M216.47,322.71c-.77-9-4.15-18.3-8.56-23.51-6.92-8.17-17.82-15.62-27-13.82-8.72,1.71-10.36,4.41-10.62,4.74v0c.22-.55,1.15-5,8.58-9.43s19.24-4.09,29.82,8.59l.34.43v0C216.63,299.18,218.9,315.32,216.47,322.71Z" style="opacity: 0.05; transform-origin: 193.846px 300.412px;" class="animable" id="el8vedn5mqwjc"></path></g><path d="M170.32,290.14h0s0,0,0-.05c-2.08-3.56-6.36-7.25-13.15-8.5-7.51-1.4-18.6,5.05-23.46,10.3a21.25,21.25,0,0,0-2.28,3c-.46-12.48,12.2-22.45,21.55-20.34C153.65,274.71,166.08,278,170.32,290.14Z" style="fill: #9F2AB2; transform-origin: 150.869px 284.578px;" id="elci53g16y13b" class="animable"></path><g id="elxsv6i9sb4jf"><g style="opacity: 0.1; transform-origin: 150.869px 284.578px;" class="animable" id="elwjmcp1ww0hq"><path d="M170.32,290.14h0s0,0,0-.05c-2.08-3.56-6.36-7.25-13.15-8.5-7.51-1.4-18.6,5.05-23.46,10.3a21.25,21.25,0,0,0-2.28,3c-.46-12.48,12.2-22.45,21.55-20.34C153.65,274.71,166.08,278,170.32,290.14Z" id="el3tncy1e6olq" class="animable" style="transform-origin: 150.869px 284.578px;"></path></g></g><path d="M209.06,289.69l-.34-.43c-10.58-12.68-22.5-12.94-29.82-8.59s-8.36,8.88-8.58,9.43c.09-.56-.26-6.54,5.34-13.52,2.52-3.13,5.32-4.6,9.79-5.72a18.94,18.94,0,0,1,6.76-.05C197.31,271.68,207.75,278.37,209.06,289.69Z" style="fill: #9F2AB2; transform-origin: 189.69px 280.315px;" id="elaziq2lhcpbp" class="animable"></path><g id="el7z8zrlwpu4y"><path d="M209.06,289.69l-.34-.43c-10.58-12.68-22.5-12.94-29.82-8.59s-8.36,8.88-8.58,9.43c.09-.56-.26-6.54,5.34-13.52,2.52-3.13,5.32-4.6,9.79-5.72a18.94,18.94,0,0,1,6.76-.05C197.31,271.68,207.75,278.37,209.06,289.69Z" style="opacity: 0.1; transform-origin: 189.69px 280.315px;" class="animable" id="eltgway97dg3"></path></g><path d="M185.45,270.86c-2.25.56-6.85,2.09-9.38,5.23a25,25,0,0,0-5.75,14v0c-.48-4.36-7.41-12.64-17.4-15.62.41-4.29,8.93-8,15-8.9C175.79,264.44,184.17,267,185.45,270.86Z" style="fill: #9F2AB2; transform-origin: 169.185px 277.696px;" id="elrhvhgw6y2z" class="animable"></path><g id="ellix4edjplp"><path d="M185.45,270.86c-2.25.56-6.85,2.09-9.38,5.23a25,25,0,0,0-5.75,14v0c-.48-4.36-7.41-12.64-17.4-15.62.41-4.29,8.93-8,15-8.9C175.79,264.44,184.17,267,185.45,270.86Z" style="opacity: 0.17; transform-origin: 169.185px 277.696px;" class="animable" id="el3061qn9fh3f"></path></g><path d="M170.26,290.08c-.59-.63-6.09-5.93-19.11-2.47-13.8,3.67-18.85,19.68-20.54,25.5a35,35,0,0,0-1.14,10.38c-5.39-11.2-2.16-22.29,1.9-28.63a21.25,21.25,0,0,1,2.28-3c4.86-5.25,15.66-11.63,23.46-10.3C164.41,282.82,168.18,286.52,170.26,290.08Z" style="fill: #9F2AB2; transform-origin: 148.446px 302.436px;" id="elmh6qrkzirrh" class="animable"></path><g id="eluid5hh30ebr"><path d="M170.26,290.08c-.59-.63-6.09-5.93-19.11-2.47-13.8,3.67-18.85,19.68-20.54,25.5a35,35,0,0,0-1.14,10.38c-5.39-11.2-2.16-22.29,1.9-28.63a21.25,21.25,0,0,1,2.28-3c4.86-5.25,15.66-11.63,23.46-10.3C164.41,282.82,168.18,286.52,170.26,290.08Z" style="opacity: 0.05; transform-origin: 148.446px 302.436px;" class="animable" id="elv80xfw1twa"></path></g><path d="M165,292.38a11.05,11.05,0,0,1,5.56-1.14,7.77,7.77,0,0,1,4.54,1.78s.29-3.92,4.9-4.16c0,0-4.64-2.24-1.43-4.66a2.7,2.7,0,0,1-4.13-1.51,12.72,12.72,0,0,1-.81-6.31,9.84,9.84,0,0,1,.79-2.23,2.52,2.52,0,0,0,.61-1.91,2.69,2.69,0,0,0-.7-1.07,3.6,3.6,0,0,0-2.09-1.38c-.65-.07-1.28.22-1.93.2a12.11,12.11,0,0,1-2.53-.84,3.2,3.2,0,0,0-2.55.46c-.73.49-.73,1-1,1.78-.56,1.67-.54,6-.39,7.78.34,4.05.78,6-2.88,7.33,0,0,3.32,1.61-.67,3.57C160.3,290.07,164.56,289.46,165,292.38Z" style="fill: rgb(55, 71, 79); transform-origin: 170.145px 281.04px;" id="elm2o7ytz00oq" class="animable"></path><path d="M174.86,273.38a1.67,1.67,0,0,0,.17-1.14,2.62,2.62,0,0,0-.7-1.07,3.55,3.55,0,0,0-2.09-1.38c-.64-.07-1.28.22-1.93.2a11.84,11.84,0,0,1-2.52-.84,3.22,3.22,0,0,0-2.56.46,1.7,1.7,0,0,0-.72,1,1.22,1.22,0,0,0,.46,1.22c.44.3,1.07.3,1.45.68s.36,1.14.61,1.69a1.61,1.61,0,0,0,1.59.9,6.62,6.62,0,0,0,1.35-.49c1.41-.49,3.13.1,4.38-.71A2.33,2.33,0,0,0,174.86,273.38Z" style="fill: rgb(69, 90, 100); transform-origin: 169.775px 272.083px;" id="el2ql369gsjv9" class="animable"></path><path d="M176.07,290.67c-2.31-2.1-4.31-6.88-4.71-9.59a21.89,21.89,0,0,0,.89,6.42c1,3,1.87,3.65,2.84,5.52A5.91,5.91,0,0,1,176.07,290.67Z" style="fill: rgb(38, 50, 56); transform-origin: 173.714px 287.05px;" id="elgc4wox3jxtc" class="animable"></path><path d="M167.89,287.05a31.85,31.85,0,0,0-.41-5.91s.49,5.25-1,7.36a10.2,10.2,0,0,1-2.47,2.21,2.41,2.41,0,0,1,1,1.67A6.4,6.4,0,0,0,167.89,287.05Z" style="fill: rgb(38, 50, 56); transform-origin: 165.955px 286.76px;" id="el2zcllt9dn6b" class="animable"></path><g id="el08rsaplw2aft"><path d="M148,355.36a22.68,22.68,0,0,1-3-4.14c-5.88-1.31-12.2-8.88-14.19-17.48q-.26-1.12-.45-2.22c0-.25-.1-.5-.14-.74-.09-.56-.18-1.1-.25-1.65,0-.18,0-.36-.07-.54,3.72-1.19,7.39.66,9.38,2.43,0,0,4.48-4.59,14.35-2.77s12.85,8.26,12.85,8.26,6.69-.7,12.07,8.92c3.85,6.89,2.07,11.87,2.07,11.87a20.64,20.64,0,0,1,2,4.39,11.82,11.82,0,0,1-6.43,2.32c-3.94.22-7.8-1.37-11.12-5C162.37,361.19,154.05,361.81,148,355.36Z" style="opacity: 0.05; transform-origin: 156.26px 345.927px;" class="animable" id="el8h42sadcu9y"></path></g></g><g id="freepik--pumpkin--inject-134" class="animable" style="transform-origin: 137.349px 365.356px;"><path d="M124.84,378.4c-.13,5.88.19,13,3.82,18.36a13.57,13.57,0,0,0,20.47.63,21,21,0,0,0,4.8-10c2-9.08,1.18-22.31-6.1-30.9-4.77-5.63-10-5.23-10-5.23s-4.73,1.24-8.18,7.68A44.72,44.72,0,0,0,124.84,378.4Z" style="fill: #9F2AB2; transform-origin: 139.844px 376.499px;" id="elvvbj29kgbvg" class="animable"></path><g id="elwwvtzhxbg2"><path d="M124.84,378.4c-.13,5.88.19,13,3.82,18.36a13.57,13.57,0,0,0,20.47.63,21,21,0,0,0,4.8-10c2-9.08,1.18-22.31-6.1-30.9-4.77-5.63-10-5.23-10-5.23s-4.73,1.24-8.18,7.68A44.72,44.72,0,0,0,124.84,378.4Z" style="fill: rgb(255, 255, 255); opacity: 0.5; transform-origin: 139.844px 376.499px;" class="animable" id="elr3k9mvj47ye"></path></g><g id="eltu9x9s0ih1l"><path d="M141.12,397.19c8.1-2.11,12.71-9.39,13.6-15.3h0a40.64,40.64,0,0,1-.79,5.47,21,21,0,0,1-4.8,10,13.57,13.57,0,0,1-20.47-.63,20.87,20.87,0,0,1-3-7.19C126.28,392.53,133.08,399.28,141.12,397.19Z" style="opacity: 0.05; transform-origin: 140.19px 391.802px;" class="animable" id="elwddea0usvie"></path></g><path d="M137.8,351.24s5.26-.4,10,5.23c7.28,8.59,8.07,21.82,6.1,30.9a21,21,0,0,1-4.8,10c2.67,1.41,10.37,1.33,15.12-3.8a15.44,15.44,0,0,0,2.32-3.23c3-5.47,3.14-12.46,2.69-17.19-.54-5.72-4.62-13.31-12.21-18.54s-15.94-4.93-19.23-3.4Z" style="fill: #9F2AB2; transform-origin: 153.606px 374.193px;" id="eluxnz21eb7p9" class="animable"></path><g id="elm2sr3evsjto"><path d="M137.8,351.24s5.26-.4,10,5.23c7.28,8.59,8.07,21.82,6.1,30.9a21,21,0,0,1-4.8,10c2.67,1.41,10.37,1.33,15.12-3.8a15.44,15.44,0,0,0,2.32-3.23c3-5.47,3.14-12.46,2.69-17.19-.54-5.72-4.62-13.31-12.21-18.54s-15.94-4.93-19.23-3.4Z" style="fill: rgb(255, 255, 255); opacity: 0.25; transform-origin: 153.606px 374.193px;" class="animable" id="eljeoq0wg9w5"></path></g><g id="elr611x1pgkq"><path d="M149.91,359.32c5.06,6.24,11.89,17.52,5.86,33.85,0,0,1.57,1.08,6-1.05a14,14,0,0,0,7.23-9,22.77,22.77,0,0,1-2.39,7.21,15.44,15.44,0,0,1-2.32,3.23c-4.75,5.13-12.45,5.21-15.12,3.8a21,21,0,0,0,4.8-10c1.77-8.12,1.3-19.56-4-28Z" style="opacity: 0.05; transform-origin: 159.085px 378.731px;" class="animable" id="el5aqpvciv3d3"></path></g><path d="M137.82,351.23c3.29-1.53,11.67-1.84,19.23,3.4s11.67,12.82,12.21,18.54c.45,4.73.33,11.72-2.69,17.19,5.23-1.33,10.14-7.3,11-13.74a30.23,30.23,0,0,0,0-7.6,22.16,22.16,0,0,0-2.25-7.55c-2.23-4.16-7.16-11.5-20.23-13.32-12.34-1.7-16.76,2.54-17.23,3C137.83,351.2,137.82,351.21,137.82,351.23Z" style="fill: #9F2AB2; transform-origin: 157.815px 369.055px;" id="elrjpkxnwi8ka" class="animable"></path><g id="elqeaeeq6oimk"><path d="M159.87,356.82h0c7.07,3.47,12.9,12.47,12.93,22.62,0,0,3.67-1.52,5-7.25a29.28,29.28,0,0,1-.24,4.44c-.82,6.44-5.73,12.41-11,13.74,3-5.47,3.14-12.46,2.69-17.19C168.79,368.2,165.65,361.84,159.87,356.82Z" style="opacity: 0.05; transform-origin: 168.839px 373.595px;" class="animable" id="el22qsky7amab"></path></g><path d="M108.64,377.71c-.06,3.09,0,8.61,2.93,13.1a14,14,0,0,0,6.35,5.35,15,15,0,0,0,10.74.6c-3.63-5.34-4-12.48-3.82-18.36a44.72,44.72,0,0,1,4.78-19.48c3.45-6.44,8.18-7.68,8.18-7.68s-7.7-2.92-17.42,3C112.62,359,108.83,368.44,108.64,377.71Z" style="fill: #9F2AB2; transform-origin: 123.214px 374px;" id="el97e895ufnn8" class="animable"></path><g id="ell9qtea0t5vl"><path d="M108.64,377.71c-.06,3.09,0,8.61,2.93,13.1a14,14,0,0,0,6.35,5.35,15,15,0,0,0,10.74.6c-3.63-5.34-4-12.48-3.82-18.36a44.72,44.72,0,0,1,4.78-19.48c3.45-6.44,8.18-7.68,8.18-7.68s-7.7-2.92-17.42,3C112.62,359,108.83,368.44,108.64,377.71Z" style="fill: rgb(255, 255, 255); opacity: 0.25; transform-origin: 123.214px 374px;" class="animable" id="eldxgyvderb2g"></path></g><g id="elg6zlaswbmak"><path d="M121.66,392.19c-4.21-17,5.07-30,8.62-34.42-.23.37-.45.75-.66,1.15a44.72,44.72,0,0,0-4.78,19.48c-.13,5.88.19,13,3.82,18.36a15,15,0,0,1-10.74-.6,14,14,0,0,1-6.35-5.35,20.75,20.75,0,0,1-2.91-10.68C113.82,392.05,121.66,392.19,121.66,392.19Z" style="opacity: 0.05; transform-origin: 119.47px 377.625px;" class="animable" id="el0kf24mqjy0qb"></path></g><path d="M97.74,374a21.62,21.62,0,0,0,2,8.43c2.44,5.05,8.86,8.72,11.83,8.36-2.92-4.49-3-10-2.93-13.1.19-9.27,4-18.7,11.74-23.44,9.72-5.95,17.42-3,17.42-3v0c-.27-.23-4.88-3.93-13.08-4.63-8.57-.74-16.47,3.19-21.87,9.63C99.41,360.32,97.4,367.4,97.74,374Z" style="fill: #9F2AB2; transform-origin: 117.751px 368.673px;" id="el5hmy1m2o3d9" class="animable"></path><g id="elhcv0m4vzpbt"><path d="M104.82,383.55c-1.66-20.16,9.42-27.8,16.22-29.67v0l-.66.37c-7.76,4.74-11.55,14.17-11.74,23.44-.06,3.09,0,8.61,2.93,13.1-3,.36-9.39-3.31-11.83-8.36A20.08,20.08,0,0,1,98,376.6,12.26,12.26,0,0,0,104.82,383.55Z" style="opacity: 0.05; transform-origin: 109.52px 372.347px;" class="animable" id="el14sc3txtgkw"></path></g><path d="M97.74,374c-.34-6.62,1.67-13.7,5.1-17.8,5.4-6.44,13.3-10.37,21.87-9.63,8.2.7,12.81,4.4,13.08,4.63h0a23.79,23.79,0,0,0-11.07-8.35C119.5,340.14,109.17,339,101,349a2.91,2.91,0,0,0-.26.33v0C94.85,356.76,94.65,368.75,97.74,374Z" style="fill: #9F2AB2; transform-origin: 116.777px 357.482px;" id="elc22h3jevdrm" class="animable"></path><g id="el5nmmnl01gl"><path d="M97.74,374c-.34-6.62,1.67-13.7,5.1-17.8,5.4-6.44,13.3-10.37,21.87-9.63,8.2.7,12.81,4.4,13.08,4.63h0a23.79,23.79,0,0,0-11.07-8.35C119.5,340.14,109.17,339,101,349a2.91,2.91,0,0,0-.26.33v0C94.85,356.76,94.65,368.75,97.74,374Z" style="opacity: 0.05; transform-origin: 116.777px 357.482px;" class="animable" id="eln6lfheockv"></path></g><path d="M137.85,351.19c.47-.5,4.89-4.74,17.23-3,13.07,1.82,18,9.16,20.23,13.32a22.16,22.16,0,0,1,2.25,7.55c3.64-8.56-.61-16.5-5.07-20.89a18.9,18.9,0,0,0-2.45-2,24.59,24.59,0,0,0-19.92-3.2C144.25,344.67,139.35,348.44,137.85,351.19Z" style="fill: #9F2AB2; transform-origin: 158.392px 355.591px;" id="ellt3brsirjr" class="animable"></path><g id="el2ekl2ka1wal"><path d="M137.85,351.19c.47-.5,4.89-4.74,17.23-3,13.07,1.82,18,9.16,20.23,13.32a22.16,22.16,0,0,1,2.25,7.55c3.64-8.56-.61-16.5-5.07-20.89a18.9,18.9,0,0,0-2.45-2,24.59,24.59,0,0,0-19.92-3.2C144.25,344.67,139.35,348.44,137.85,351.19Z" style="opacity: 0.05; transform-origin: 158.392px 355.591px;" class="animable" id="elumg5gqt4per"></path></g><path d="M137.8,351.24h0s0,0,0,0c1.5-2.75,6.4-6.52,12.27-8.3a24.59,24.59,0,0,1,19.92,3.2,18.9,18.9,0,0,1,2.45,2c-1-9.19-14.52-16.28-22-13.3l-.35.14C142.66,338.31,137.73,348,137.8,351.24Z" style="fill: #9F2AB2; transform-origin: 155.12px 342.695px;" id="el72ek7pnxc47" class="animable"></path><g id="eln0wpqn8r4o"><path d="M137.8,351.24h0s0,0,0,0c1.5-2.75,6.4-6.52,12.27-8.3a24.59,24.59,0,0,1,19.92,3.2,18.9,18.9,0,0,1,2.45,2c-1-9.19-14.52-16.28-22-13.3l-.35.14C142.66,338.31,137.73,348,137.8,351.24Z" style="opacity: 0.1; transform-origin: 155.12px 342.695px;" class="animable" id="elqbdcrr91c9m"></path></g><path d="M100.69,349.31A2.91,2.91,0,0,1,101,349c8.22-10,18.55-8.84,25.77-6.12a23.79,23.79,0,0,1,11.07,8.35,30,30,0,0,0-8.64-12.06,26.36,26.36,0,0,0-9-5.17,21.6,21.6,0,0,0-6.2.4C109.36,335.34,100.57,340.92,100.69,349.31Z" style="fill: #9F2AB2; transform-origin: 119.264px 342.581px;" id="elvgkwl44hku" class="animable"></path><g id="el97mddzjrkua"><path d="M100.69,349.31A2.91,2.91,0,0,1,101,349c8.22-10,18.55-8.84,25.77-6.12a23.79,23.79,0,0,1,11.07,8.35,30,30,0,0,0-8.64-12.06,26.36,26.36,0,0,0-9-5.17,21.6,21.6,0,0,0-6.2.4C109.36,335.34,100.57,340.92,100.69,349.31Z" style="opacity: 0.1; transform-origin: 119.264px 342.581px;" class="animable" id="el98lvt5qmoei"></path></g><path d="M120.13,334a26.36,26.36,0,0,1,9,5.17,30,30,0,0,1,8.64,12.06h0v0c-.07-3.23,4.86-12.93,12.3-16.27l.35-.14c-.87-3.11-9.2-5.54-14.85-5.82C128.23,328.65,120.86,331.08,120.13,334Z" style="fill: #9F2AB2; transform-origin: 135.275px 340.098px;" id="elkyrjvcdf0ef" class="animable"></path><g id="elvhvxudxigqi"><path d="M120.13,334a26.36,26.36,0,0,1,9,5.17,30,30,0,0,1,8.64,12.06h0v0c-.07-3.23,4.86-12.93,12.3-16.27l.35-.14c-.87-3.11-9.2-5.54-14.85-5.82C128.23,328.65,120.86,331.08,120.13,334Z" style="opacity: 0.17; transform-origin: 135.275px 340.098px;" class="animable" id="el776x859d45j"></path></g><path d="M143.39,352.76a11.7,11.7,0,0,0-5.24-1,13.53,13.53,0,0,0-4.92,2.34s-.31-3-4.92-3.09c0,0,1.73-2.15.67-3.76a5.39,5.39,0,0,0,4.57-3.49,7.46,7.46,0,0,0,.11-4.34,4.74,4.74,0,0,0-.6-1.57,2.52,2.52,0,0,1-.66-1.89,2.57,2.57,0,0,1,.66-1.09,3.62,3.62,0,0,1,2-1.45c.65-.08,1.29.18,1.94.14a11.7,11.7,0,0,0,2.49-.92,3.15,3.15,0,0,1,2.57.38c.74.46.76,1,1,1.74a12.87,12.87,0,0,1,.87,5.13c-.21,4.06-.57,6.69,3.13,8,0,0-1.61,1,.5,2.81C147.64,350.66,143.72,349.82,143.39,352.76Z" style="fill: rgb(55, 71, 79); transform-origin: 137.936px 343.309px;" id="elyytz0dpq03" class="animable"></path><path d="M132.6,337.11a1.67,1.67,0,0,1-.2-1.14,2.57,2.57,0,0,1,.66-1.09,3.62,3.62,0,0,1,2-1.45c.65-.08,1.29.18,1.94.14a11.7,11.7,0,0,0,2.49-.92,3.15,3.15,0,0,1,2.57.38,1.74,1.74,0,0,1,.76.93,1.25,1.25,0,0,1-.42,1.24c-.44.31-1.06.33-1.43.72s-.33,1.15-.56,1.71a1.6,1.6,0,0,1-1.56.95,6.54,6.54,0,0,1-1.36-.44c-1.43-.45-3.12.2-4.4-.57A2,2,0,0,1,132.6,337.11Z" style="fill: rgb(69, 90, 100); transform-origin: 137.612px 335.556px;" id="elq28hrpco0e" class="animable"></path><path d="M131.92,352.06c2.24-2.18,4.34-7.29,4.64-10a21.81,21.81,0,0,1-.67,6.45c-.89,3-1.75,3.71-2.66,5.61A3.22,3.22,0,0,0,131.92,352.06Z" style="fill: rgb(38, 50, 56); transform-origin: 134.251px 348.09px;" id="el2gz9q68kgqw" class="animable"></path><path d="M140.23,347.91a32.22,32.22,0,0,1,.21-5.92s-.32,5.27,1.3,7.32a8.71,8.71,0,0,0,2.32,2,2.24,2.24,0,0,0-.67,1.43A5.73,5.73,0,0,1,140.23,347.91Z" style="fill: rgb(38, 50, 56); transform-origin: 142.119px 347.365px;" id="elitmlxyn5kpb" class="animable"></path></g></g><g id="freepik--Character--inject-134" class="animable" style="transform-origin: 298.564px 225.576px;"><g id="freepik--character--inject-134" class="animable" style="transform-origin: 281.078px 225.576px;"><g id="freepik--Hat--inject-134" class="animable" style="transform-origin: 256.994px 85.2913px;"><path d="M263.45,96.09c-12.45,6.61-27,3.68-32.39-6.56a20,20,0,0,1-2-11.07c.31-4.17-1.21-7.5-3.29-11s-4.41-7.9-3.18-12a3.44,3.44,0,0,0,.26-2.32c-.39-.9-1.57-1.12-2.55-1.07a5,5,0,0,1-2.88-.27c-1.71-1-1.08-3.91-2.55-5.25-1.27-1.15-3.29-.54-4.75.36A7,7,0,0,0,207.87,49a3.26,3.26,0,0,0-.36,3A2.13,2.13,0,0,0,210,53.15a1.61,1.61,0,0,0,.67-2.51l-1.07-.17c1.18-1.13,3.4-.41,4,1.11a4,4,0,0,1-1.39,4.35c-2.25,1.81-5.82,1.35-7.9-.64a8.89,8.89,0,0,1-2.24-8,16.12,16.12,0,0,1,4-7.54,15.34,15.34,0,0,1,8-5.2c2.83-.6,5.76,0,8.56.73a91.37,91.37,0,0,1,14.7,5.2,182.63,182.63,0,0,1,16.52,8.93l13.33,7.81c3.63,2.12,6.87,4.54,8.89,8.34C281.6,75.81,275.91,89.47,263.45,96.09Z" style="fill: rgb(55, 71, 79); transform-origin: 240.028px 66.9642px;" id="elem5qoxmkwyw" class="animable"></path><path d="M276.16,65.57c-2-3.8-5.26-6.22-8.89-8.34l-5.8-3.4a69.33,69.33,0,0,0-18.69,7.71,70.06,70.06,0,0,0-14.42,11.23,14.39,14.39,0,0,1,.73,5.69,20,20,0,0,0,2,11.07c5.43,10.24,19.94,13.17,32.39,6.56S281.6,75.81,276.16,65.57Z" style="fill: #9F2AB2; transform-origin: 253.293px 76.7269px;" id="el9x6rfumr2f" class="animable"></path><g id="elgxzahtqxlu7"><path d="M276.16,65.57c-2-3.8-5.26-6.22-8.89-8.34l-5.8-3.4a69.33,69.33,0,0,0-18.69,7.71,70.06,70.06,0,0,0-14.42,11.23,14.39,14.39,0,0,1,.73,5.69,20,20,0,0,0,2,11.07c5.43,10.24,19.94,13.17,32.39,6.56S281.6,75.81,276.16,65.57Z" style="opacity: 0.3; transform-origin: 253.293px 76.7269px;" class="animable" id="elvhkvirphbg"></path></g><g id="eli1mcbfwv2zp"><ellipse cx="258.97" cy="89.25" rx="45.26" ry="27.88" style="fill: rgb(69, 90, 100); transform-origin: 258.97px 89.25px; transform: rotate(-30.58deg);" class="animable" id="eli862840ub0l"></ellipse></g></g><path id="freepik--Hair--inject-134" d="M307.23,119.86a7.11,7.11,0,0,0-5.57-6.49,7.79,7.79,0,0,0,0-10.22c-2.38-2.59-6.21-3.19-9.17-5.11a11.83,11.83,0,0,1-4-4.38,10.88,10.88,0,0,1-1.06-3.22c3.84-5.19,2.93-14.38-1.48-19.26a16.84,16.84,0,0,0-12.08-5.76,26.33,26.33,0,0,0-39.3,22.08l-.33,10.2a49.18,49.18,0,0,0,4.35,21.48c1.91,3.89,3.83,7.69,6.79,10.86s5.78,5.05,10,7.67c7.71,4.79,16,8.32,25.08,7.93a14.13,14.13,0,0,0,5.43-1.11,6.59,6.59,0,0,0,3.67-4c3.46.63,7.23,1.23,10.35-.4a7.71,7.71,0,0,0,4.31-5.78c.12-.79.54-5.64-2.06-7.62C305.29,126.35,307.35,122.93,307.23,119.86Z" style="fill: rgb(38, 50, 56); transform-origin: 270.73px 103.833px;" class="animable"></path><g id="freepik--Legs--inject-134" class="animable" style="transform-origin: 257.717px 298.718px;"><path d="M214.9,365.85s-3.06-31-.33-49c2.33-15.42,4.91-21.8,5.4-25.31,0,0,4.31-36.24,5-67.08.35-14.63,1.11-22.26,12.31-39l4.22-4.87c.66,5.69,6.1,5.53,13.83,6.75q11.16,1.77,28.13-3.13c1.79,14.73,3.31,42.69,4.77,73.17.71,14.9-.12,27.36-.32,36.91-.27,12.95-3.82,63.58-3.82,63.58l-.08,2.14c0,2.37.46,4,1.94,7.86a46,46,0,0,0,7.92,13.52c1.06,1.17,8.43,7.8,9.4,9.21,3.15,3.78-3.52,5.79-8.44,5.07-5.19-.77-13.25-2.85-15.49-6-1.5-2.13-2.55-9.54-4.09-11.7-5.19-7.29-7.32-10.42-7.33-12.73,0-4.16,1.44-5.79,2-8.14-.36-4.92-9.1-31-9.09-45.3,0-6.82,2.08-18.83,2.08-18.83l-6.41-50.07c-2.59,13.88-7.74,45.16-9.55,55.11-2.48,13.71-10.37,36.72-15.53,54.84-1.94,6.8-2.88,9.84-3.48,14.31,0,0-.18,1.59-.18,1.61-.14,2-1.32,23.73-2.19,28.3-1.81,9.54-10.29,8.22-11.55.47-1.07-6.6.66-27,.72-29.47Z" style="fill: rgb(255, 168, 167); transform-origin: 258.76px 292.191px;" id="elqr0bpna4kx" class="animable"></path><path d="M214.63,365.71c-2.4,0-.95,9.32-1.65,15.28-.75,6.4-2.92,11.05-3.59,16.29-.77,6-.26,8.51,1.82,13.47,1.62,3.86,10,9.23,13.22,3.78s4-11.69,3.76-17.67c-.3-6.18-.61-10.7-.67-15.4-.06-4.14,3.26-13.81.16-14.45l-.17,1.61c-1.15,2.21-11.82,3.61-13-.69Z" style="fill: rgb(55, 71, 79); transform-origin: 219.028px 391.278px;" id="elvcolej8gr0b" class="animable"></path><path d="M267.11,370.13c-.77,3-.12,11.19-.12,11.19s1.25,2.85,5.84,4.8l2.23-11.39Z" style="fill: rgb(38, 50, 56); transform-origin: 270.897px 378.125px;" id="el1tb3y4jj381" class="animable"></path><polygon points="272.83 386.12 283.06 382.91 285.63 373.91 274.12 379.55 272.83 386.12" id="elyuxpt0ow4j" class="animable" style="transform-origin: 279.23px 380.015px;"></polygon><path d="M283.77,359.91l.09-2.14c1.37.69,4.26,11.87,8.27,19.56,3.66,7,11.05,11,13.43,14.08,3.18,4.1-3.18,9.24-13.24,6.95-5-1.14-12.52-4.44-14.53-7.85s-2.62-9.62-4.27-12.12-5.6-5.42-6.41-8.26a15.45,15.45,0,0,1,.13-7.81c.82-2.56,1.55-5.66,2.43-5.37l0,2c.66,1.38,3.07,3,8.16,3.36C280.28,362.44,282.64,362.1,283.77,359.91Z" style="fill: rgb(55, 71, 79); transform-origin: 286.528px 377.928px;" id="el3lczv8gmy4y" class="animable"></path></g><g id="freepik--Arm--inject-134" class="animable" style="transform-origin: 322.35px 159.359px;"><path d="M365.46,184a59.41,59.41,0,0,1-9.63-2.85s6.21-1.27,6.67-3.89c.57-3.22-3.41-.14-9-.93-4.91-.7-9.13.2-11.67-.54l-38.12-13.67s-13.24-29.63-17.08-33.91-6.12-5.32-12.35-5.49L276.43,147s10.38,19.62,13.29,24.39,3.57,5.95,10.53,8.22c9.17,3,33.47,7.4,40.49,10.45,9.1,4,19.4,7.9,24.91,4.89a11.21,11.21,0,0,0,4.53-5.4C371.22,187.25,368.74,184.65,365.46,184Z" style="fill: rgb(255, 168, 167); transform-origin: 322.35px 159.369px;" id="el4ii8i29yeiw" class="animable"></path><path d="M274.84,122.7c3.81,0,7.73.51,10.68,3.7s8,12.88,12.23,21.85,6.12,13.43,6.12,13.43L331.28,172s-3.79,7.13-3.12,14.56c0,0-27.75-6.15-31.47-7s-3.9-2.3-7.12-7.71-15.29-27.73-15.29-27.73Z" style="fill: rgb(55, 71, 79); transform-origin: 302.78px 154.63px;" id="el7ulfw0cffjx" class="animable"></path></g><g id="freepik--Dress--inject-134" class="animable" style="transform-origin: 247.936px 198.315px;"><path d="M282.5,180.63c.72-3.9,1.11-6.49,1.75-9.07.43-1.71,1.24-4,1.4-4.6,11.42-8.15,7.69-21.29,3.14-27.23-7-9.16-9.31-12.33-14-17l-25.44-1.09c-2,.17-13.37,2-13.37,2-2.84,1.25-6,8-5.21,13.37.78,5.59.61,11.35,2.82,18s4.35,12,6,17.93l1.95,7.73" style="fill: rgb(69, 90, 100); transform-origin: 261.929px 151.155px;" id="elqzxa0r3p1m" class="animable"></path><path d="M270.28,163s-6.91,6.11-15.4,3.7a14.89,14.89,0,0,1-8.12-5.49.6.6,0,0,0-1,.6c1.2,2.8,3.79,6.06,9.39,7.41C265.42,171.72,270.28,163,270.28,163Z" style="fill: rgb(55, 71, 79); transform-origin: 258.006px 165.351px;" id="elq4ib7gintz8" class="animable"></path><path d="M299.29,261.2c-.25-1.92-3.2-.61-4.29-2.2l-96.54-18.41a2.84,2.84,0,0,0,.42,5.66,2.64,2.64,0,0,0,3.22,3.81,4.11,4.11,0,0,0,4.42,4,4.08,4.08,0,0,0,4,4.06,4,4,0,0,0,4.53,3.48,4.93,4.93,0,0,0,5.52,2.58,4.1,4.1,0,0,0,5.87,2.6,4.75,4.75,0,0,0,6.38,2.61,4.42,4.42,0,0,0,6.6,1.92,4.84,4.84,0,0,0,6.75,1.55,6.19,6.19,0,0,0,8.09,1.05c1.4,3.16,6.74,3.19,9.11.58.81,1.31,3.36,2.17,4.88,1.9a4,4,0,0,0,3.1-3.06,5.16,5.16,0,0,0,8,.24c1.83,2,5.46.07,6.54-2.35a2.91,2.91,0,0,0,4,1,2.35,2.35,0,0,0,.89-2c.5.79,2.41.9,3.26.5a2.76,2.76,0,0,0,1.33-3.08c1.54,1,3.68-.21,4.14-1.09C300.37,264.92,299.46,262.55,299.29,261.2Z" style="fill: #9F2AB2; transform-origin: 247.908px 258.515px;" id="eltvad55mitm" class="animable"></path><path d="M241.54,180.63s-12.62,6.91-23,24.05-22.51,33-22.51,33a17.38,17.38,0,0,0,13.08,11.51c0,6.85,8.86,13.8,17.79,12.33,3,6.69,12.11,10,20,7,5.49,5.11,15,5.9,20,.92,4.22,3.61,14,3.15,16.87-1.76,6,2.5,16-2.43,16.16-8.4,0,0-3.52-54.39-17.36-78.73C258,178.93,241.54,180.63,241.54,180.63Z" style="fill: rgb(69, 90, 100); transform-origin: 247.98px 226.32px;" id="el8725rl2u6ms" class="animable"></path><path d="M217.68,222.84c-5.2,10.39-9.82,19-13.61,24.54a18.86,18.86,0,0,0,5,1.86s12.85-35.79,21.64-45.32C230.7,203.92,225.55,207.12,217.68,222.84Z" style="fill: rgb(55, 71, 79); transform-origin: 217.39px 226.58px;" id="elpz8iq9m1j7" class="animable"></path><path d="M222.55,261.64a15.14,15.14,0,0,0,4.3-.07c2.22-13.46,10.91-52.83,19.49-66.68C246.34,194.89,232.88,206.43,222.55,261.64Z" style="fill: rgb(55, 71, 79); transform-origin: 234.445px 228.325px;" id="el4ywr1kp6s8e" class="animable"></path><path d="M246.82,268.6a15.64,15.64,0,0,0,4.51,2.89c5.08-46.81,3.94-51.29,5.55-66.52C254.18,215.21,249.23,256.51,246.82,268.6Z" style="fill: rgb(55, 71, 79); transform-origin: 251.85px 238.23px;" id="elvf4p24hu8ks" class="animable"></path><path d="M270,271.19c2.91-45-1.63-74.79-1.63-74.79,1.44,21,.13,59.72-1.51,73.12A9.33,9.33,0,0,0,270,271.19Z" style="fill: rgb(55, 71, 79); transform-origin: 268.917px 233.795px;" id="el5vfu193noeu" class="animable"></path><path d="M286.32,268.3c.45-22.23-4.35-46.8-4.35-46.8,2.67,17.87,1.73,46.26,1.73,46.26A7.7,7.7,0,0,0,286.32,268.3Z" style="fill: rgb(55, 71, 79); transform-origin: 284.16px 244.9px;" id="el0c4lio7qwpko" class="animable"></path><path d="M283.81,173.5c-4.77,3.38-33.11,5.71-44.22-.6l1.95,7.73s6.49,4.2,22.88,3.83,18.08-3.83,18.08-3.83Z" style="fill: #9F2AB2; transform-origin: 261.7px 178.692px;" id="el3hhiv8lxyif" class="animable"></path><path d="M247.44,120.19s-5.33,4.11-3.52,7.18,8.47,7,14.29,6.52c7.38-.65,6.65-6.07,6.65-6.07s4.58,4.31,7.35,3.1,1.66-4.79-1-7.08a12.4,12.4,0,0,0-5.46-2.74s.29,4.32-1.31,6c0,0-10.43-1-16.89-5.24Z" style="fill: #9F2AB2; transform-origin: 258.683px 127.06px;" id="elnls2k1sjbv9" class="animable"></path></g><g id="freepik--Face--inject-134" class="animable" style="transform-origin: 259.039px 99.5285px;"><path d="M273,71c3.12,1.54,7.39,8.78,8.24,24.57.71,13.38-3.36,17-5.46,18.13s-6.34.86-10.47.5l.53,9.24s3.85,2.53.42,4c-1.87.79-6.88.95-11.67-.29-5.57-1.44-7-3.79-7-3.79l-1-19.23s-2.37,2.61-6.19.27c-4.09-2.51-4.61-7.52-2.2-10.38s7.51-1.85,8.84,1.74c0,0,5.76-.8,13.72-6.71C269.37,82.59,271.12,76.75,273,71Z" style="fill: rgb(255, 168, 167); transform-origin: 259.039px 99.5285px;" id="ellrknv2tfir" class="animable"></path><path d="M263.65,93.18a1.68,1.68,0,1,1-1.89-1.53A1.72,1.72,0,0,1,263.65,93.18Z" style="fill: rgb(38, 50, 56); transform-origin: 261.976px 93.3184px;" id="el9fi1r9f7c95" class="animable"></path><path d="M264.38,102.36l6.48,1.78a3.31,3.31,0,0,1-4.07,2.46A3.52,3.52,0,0,1,264.38,102.36Z" style="fill: rgb(177, 102, 104); transform-origin: 267.566px 104.535px;" id="elnhwgkslo5a" class="animable"></path><path d="M266.79,106.6a3.18,3.18,0,0,0,1.62,0,2.78,2.78,0,0,0-4-2.44A3.45,3.45,0,0,0,266.79,106.6Z" style="fill: rgb(242, 143, 143); transform-origin: 266.41px 105.291px;" id="eln048jem5z3" class="animable"></path><path d="M278,87.22l-3.58-2.1a2,2,0,0,1,2.78-.79A2.18,2.18,0,0,1,278,87.22Z" style="fill: rgb(38, 50, 56); transform-origin: 276.337px 85.6375px;" id="elwm9cfcg2ew" class="animable"></path><path d="M277.49,91.22a1.69,1.69,0,1,1-1.9-1.53A1.72,1.72,0,0,1,277.49,91.22Z" style="fill: rgb(38, 50, 56); transform-origin: 275.806px 91.3678px;" id="eldhwagydiqn8" class="animable"></path><polygon points="269.41 90.34 270.45 100.44 275.65 98.38 269.41 90.34" style="fill: rgb(242, 143, 143); transform-origin: 272.53px 95.39px;" id="elxjabe4snecd" class="animable"></polygon><path d="M265.33,114.16c-4.34-.24-13.38-2.1-15-5.49a9,9,0,0,0,3.44,4.22c2.81,2.07,11.73,3.94,11.73,3.94Z" style="fill: rgb(242, 143, 143); transform-origin: 257.915px 112.75px;" id="elj60x9wrn0ei" class="animable"></path></g><path id="freepik--hat--inject-134" d="M274.39,65.44C258.48,66.93,235.83,79,234.1,93.35c.51,1.48-5.11-12.6-5.11-12.6,4.74-6.73,22.84-20.92,36.9-22.59Z" style="fill: rgb(69, 90, 100); transform-origin: 251.69px 75.8095px;" class="animable"></path><g id="freepik--arm--inject-134" class="animable" style="transform-origin: 217.781px 172.546px;"><path d="M218.31,190.36a47.86,47.86,0,0,0,3.24,4.67,6.59,6.59,0,0,0,3.89,2.64,48.52,48.52,0,0,1,9.53,2.24c2.72.86,4.44.63,4.53,1.33.11.9-.37,1.93-2.83,2.46a23.29,23.29,0,0,1-5.44,0,35.52,35.52,0,0,0,7.46,6.65c5.51,3.62,7.37,6.37,1.64,9.85-4.19,2.54-11.47,1.87-21.55-7.54a108.3,108.3,0,0,1-13.1-15.43Z" style="fill: rgb(255, 168, 167); transform-origin: 224.753px 205.916px;" id="elqvvfjc7znj" class="animable"></path><path d="M206.2,198.67c-16.21-20.2-16.63-23.74-11.7-30.7,26-36.7,26.65-43.84,41.53-44.35,6.18,10.6,2.22,22.85-2.93,28.61l-21.94,23.38c2.71,5.75,5.64,11.27,7.71,15h0S213.67,197,206.2,198.67Z" style="fill: rgb(55, 71, 79); transform-origin: 215.458px 161.145px;" id="el63r28m29m35" class="animable"></path></g></g><g id="freepik--Broom--inject-134" class="animable" style="transform-origin: 370.762px 246.316px;"><g id="freepik--broom--inject-134" class="animable" style="transform-origin: 370.762px 246.316px;"><path d="M351.15,324.24s-5.91-1.43-6.58-8.67c-.53-5.72,2.13-11.64,11.64-13.16,7.56-1.2,16.5.89,17.23,9,.41,4.62-.38,8.42-3.61,11.42l.45,3.28c7.33,1,13.76,5.6,17.86,15.75,4.62,11.47,1,19.93-1.75,33.31-3.13,15.42,13.92,17.78,19,11,0,0,.55,11.83-19,13.37s-37.95-7.3-46.38-26.77c-8.28-19.14-2.71-35.94,11.14-44.89Z" style="fill: #9F2AB2; transform-origin: 370.763px 350.904px;" id="el33j6j61unjc" class="animable"></path><g id="elxvnjka7146j"><path d="M349.64,377.2c-3.32-12.72-1.67-25.86,2.45-34s12.56-15.61,6.55-15.91-9-5.33-10.15-9.29,1.94-7.92,5.21-7.83,7.2-.62,8.45-2.94l-1.72-5.1a25.73,25.73,0,0,0-4.22.31c-9.51,1.52-12.17,7.44-11.64,13.16.67,7.24,6.58,8.67,6.58,8.67v3.58c-13.85,8.95-19.42,25.75-11.14,44.89,8.43,19.47,26.84,28.32,46.38,26.77a35.25,35.25,0,0,0,8.12-1.51C374.13,400.79,353,389.92,349.64,377.2Z" style="opacity: 0.1; transform-origin: 365.322px 350.906px;" class="animable" id="el9dd7d01cpa5"></path></g><g id="ell8ov24fjojs"><g style="opacity: 0.15; transform-origin: 362.625px 349.13px;" class="animable" id="elh9luys81xc"><path d="M365.49,308.93c-.22-.18-.31.23-.19.38a11.46,11.46,0,0,1,1.14,12.28,10.5,10.5,0,0,1-1.66,2.28.88.88,0,0,1,.05-.15,12.58,12.58,0,0,0,.5-5.68c0-.13-.2-.26-.24-.07a46.78,46.78,0,0,1-1.07,5.24,8.41,8.41,0,0,1-1.12,2.34,4.62,4.62,0,0,1-.8.91c-.25.23-.81.43-.92.76a.51.51,0,0,0,.5.57,2,2,0,0,0,1.15-.66,5.83,5.83,0,0,0,.84-.95c.14-.2.26-.4.38-.61a.43.43,0,0,0,.4,0c2.7-1.67,4.1-5.16,4.34-8.2A9.8,9.8,0,0,0,365.49,308.93Z" id="elpdylq7shy4" class="animable" style="transform-origin: 365.012px 318.338px;"></path><path d="M359.91,327a7.39,7.39,0,0,0-1.11-.74,6.89,6.89,0,0,1-.7-.62,4.88,4.88,0,0,1-1.09-1.56,12.08,12.08,0,0,1-.89-4.75.38.38,0,0,0,0-.18.13.13,0,0,0-.14-.09c-.07,0-.11.09-.13.16a8.19,8.19,0,0,0,.51,5.78l0,0a10,10,0,0,1-1.47-.81,8.46,8.46,0,0,1-2.71-3.91,10.29,10.29,0,0,1-.57-4.26,12.25,12.25,0,0,1,.34-2.17c.06-.25.62-1.46.39-1.6s-.86.85-1,1.07a8,8,0,0,0-.61,1.86,11.2,11.2,0,0,0,.21,5.05,10.27,10.27,0,0,0,2.48,4.19,7.05,7.05,0,0,0,2,1.33l1.09.55.55.28a3.14,3.14,0,0,1,.53.23c.16.11.26.05.3-.06a2.93,2.93,0,0,0,1.92.8C360.19,327.57,360,327.14,359.91,327Z" id="elnn784su9yq" class="animable" style="transform-origin: 355.287px 319.894px;"></path><path d="M357.8,327.77c-.26.71-.4,1.46-.63,2.18a6.87,6.87,0,0,1-1.17,2.16c-1,1.3-2.12,2.5-3.13,3.81a54.84,54.84,0,0,0-5.18,8.1,36.53,36.53,0,0,0-4.39,16.31,15.54,15.54,0,0,0,1.77,8.29c.09.14.18-.09.13-.18-1.24-2.24-1.32-5-1.25-7.5a34.42,34.42,0,0,1,1.07-7.42,47.42,47.42,0,0,1,8.49-16.66c1.1-1.43,2.33-2.75,3.43-4.18a8.1,8.1,0,0,0,1.2-2.07c.29-.82.44-1.69.73-2.51C359.08,327.53,358,327.19,357.8,327.77Z" id="el0og3cquvjyus" class="animable" style="transform-origin: 351.082px 348.067px;"></path><path d="M365.6,389.08a22.54,22.54,0,0,0-3.81-4.3,24,24,0,0,1-3.76-5.19,36.41,36.41,0,0,1-4.38-12.74c-1.11-8.73,1.2-17.81,4.61-25.8.93-2.18,2-4.3,3-6.44a12.08,12.08,0,0,0,1.52-6.37c0-.29-.51-.5-.56-.12a19.75,19.75,0,0,1-2.1,6.18c-1,1.92-1.93,3.84-2.81,5.81a62.25,62.25,0,0,0-4.14,12.63,42.53,42.53,0,0,0-.9,13,34.79,34.79,0,0,0,3.86,12.17,29.71,29.71,0,0,0,4.09,6.08c1.65,1.86,3.71,3.33,5.23,5.32C365.57,389.51,365.67,389.19,365.6,389.08Z" id="elr1l47cf8lb" class="animable" style="transform-origin: 358.87px 358.644px;"></path><path d="M380.39,344.26A38.66,38.66,0,0,0,371.67,331a33.31,33.31,0,0,0-2.45-2.45,3.94,3.94,0,0,0-2.91-1.25c-.19,0-.1.45.07.45a3.87,3.87,0,0,1,2.66,1.64c.68.75,1.33,1.53,2,2.28a49.72,49.72,0,0,1,4.88,6.15,32.16,32.16,0,0,1,5.1,13.29,49,49,0,0,1,.18,9.69c0,.12.13.19.15,0C382.29,355.25,382.35,349.62,380.39,344.26Z" id="elx31if0outtc" class="animable" style="transform-origin: 374.094px 344.109px;"></path></g></g><path d="M354.5,307.09C342.87,203.45,366.55,97.21,366.79,96.15a4.15,4.15,0,0,1,8.1,1.83c-.24,1-23.61,106-12.14,208.19.14,1.4-1.36,2.33-3.83,2.64C357,309.06,354.62,308.44,354.5,307.09Z" style="fill: rgb(69, 90, 100); transform-origin: 363.139px 200.892px;" id="el76tojsu4z6k" class="animable"></path><path d="M351.15,324.24c4.93,2,12.07,2,18.68-1.44l.45,3.28s-.13,2.94-9.06,3.86c-7.64.79-10.07-2.12-10.07-2.12Z" style="fill: rgb(69, 90, 100); transform-origin: 360.715px 326.438px;" id="elbvw8z6vl4eo" class="animable"></path><g id="elaon9vsvth0a"><path d="M386.39,375.14c.51-2.52,1.05-4.86,1.57-7.08-2.79,11.84-8.65,14.6-7.3,19.47,1.64,5.86,18.41,7.59,24.72-1.42C400.31,392.92,383.26,390.56,386.39,375.14Z" style="opacity: 0.1; transform-origin: 392.921px 380.228px;" class="animable" id="el2zuthp2z8km"></path></g></g><path id="freepik--Thumb--inject-134" d="M354.3,181.78s7-2.68,6.9-6-2.62,0-8,0c-5,0-8.82.8-11.36.06" style="fill: rgb(255, 168, 167); transform-origin: 351.521px 178.042px;" class="animable"></path></g></g><defs>     <filter id="active" height="200%">         <feMorphology in="SourceAlpha" result="DILATED" operator="dilate" radius="2"></feMorphology>                <feFlood flood-color="#32DFEC" flood-opacity="1" result="PINK"></feFlood>        <feComposite in="PINK" in2="DILATED" operator="in" result="OUTLINE"></feComposite>        <feMerge>            <feMergeNode in="OUTLINE"></feMergeNode>            <feMergeNode in="SourceGraphic"></feMergeNode>        </feMerge>    </filter>    <filter id="hover" height="200%">        <feMorphology in="SourceAlpha" result="DILATED" operator="dilate" radius="2"></feMorphology>                <feFlood flood-color="#ff0000" flood-opacity="0.5" result="PINK"></feFlood>        <feComposite in="PINK" in2="DILATED" operator="in" result="OUTLINE"></feComposite>        <feMerge>            <feMergeNode in="OUTLINE"></feMergeNode>            <feMergeNode in="SourceGraphic"></feMergeNode>        </feMerge>            <feColorMatrix type="matrix" values="0   0   0   0   0                0   1   0   0   0                0   0   0   0   0                0   0   0   1   0 "></feColorMatrix>    </filter></defs></svg>